# xmcd CD database file
#
# Track frame offsets:
#	150
#	74960
#	117712
#	155567
#	190613
#
# Disc length: 3358 seconds
#
# Revision: 0
# Processed by: cddbd v1.5.2PL0 Copyright (c) Steve Scherf et al.
# Submitted via: CDex 1.78
#
DISCID=4b0d1c05
DTITLE=Sarathy Korwar and Upaj Collective - My East is Your West CD1
DYEAR=2018
DGENRE=India overig
TTITLE0=A Street In Bombay
TTITLE1=The Creator Has A Master Plan
TTITLE2=Mind Ecology
TTITLE3=Malkauns (Part 1)
TTITLE4=Malkauns (Part 2)
EXTD=YEAR: 2018
EXTT0=
EXTT1=
EXTT2=
EXTT3=
EXTT4=
PLAYORDER=
